<svg data-v-0dd9719b="" version="1.0" xmlns="http://www.w3.org/2000/svg" xmlns:xlink="http://www.w3.org/1999/xlink" width="100%" height="100%" viewBox="0 0 340.000000 250.000000" preserveAspectRatio="xMidYMid meet" color-interpolation-filters="sRGB" style="margin: auto;"> <rect data-v-0dd9719b="" x="0" y="0" width="100%" height="100%" fill="#fff" fill-opacity="1" class="background"></rect> <rect data-v-0dd9719b="" x="0" y="0" width="100%" height="100%" fill="url(#watermark)" fill-opacity="1" class="watermarklayer"></rect> <g data-v-0dd9719b="" fill="#d89b21" class="icon-text-wrapper icon-svg-group iconsvg" transform="translate(49.74805450439453,96.66733169555664)"><g class="iconsvg-imagesvg" transform="translate(0,4.681568145751953)"><g><rect fill="#d89b21" fill-opacity="0" stroke-width="2" x="0" y="0" width="60" height="47.30219797546592" class="image-rect"></rect> <svg x="0" y="0" width="60" height="47.30219797546592" filtersec="colorsb9378168979" class="image-svg-svg primary" style="overflow: visible;"><svg xmlns="http://www.w3.org/2000/svg" viewBox="0 0 73.62000274658203 58.040000915527344"><g><g><path fill="#c1c1c1" d="M48.89 0L36.81 28.83l12.27 29.21 12.22-28.9L73.62 0H48.89z"></path><path fill="#6b6b6b" d="M48.89 0L36.81 28.83l12.27 29.21h24.54L48.89 0z"></path><path fill="#d89b21" d="M0 58.04h24.73l12.08-28.82L24.54 0 12.32 28.91 0 58.04z"></path><path fill="#ffce00" d="M36.81 29.22L24.54 0H0l24.73 58.04 12.08-28.82z"></path></g></g></svg></svg> <!----></g></g> <g transform="translate(67,0)"><g data-gra="path-name" fill-rule="" class="tp-name iconsvg-namesvg" transform="translate(0,0)"><g transform="scale(1)"><g><path d="M22.32-34.06L22.32-34.06Q23.95-34.45 25.22-33.35L25.22-33.35Q30.45-28.17 35.73-25.44L35.73-25.44Q39.24-23.55 42.76-22.19L42.76-22.19Q43.81-21.67 43.2-20.35L43.2-20.35Q42.71-19.78 41.7-20.21L41.7-20.21Q34.5-23.38 27.64-28.52L27.64-28.52Q26.19-29.71 25-30.85L25-30.85Q23.25-32.92 21.53-31.11L21.53-31.11Q18.41-27.95 14.5-25.31L14.5-25.31Q9.67-22.1 3.96-19.64L3.96-19.64Q2.94-19.07 2.37-20.26L2.37-20.26Q1.98-21.27 3.21-21.75L3.21-21.75Q9.8-24.48 15.51-28.61L15.51-28.61Q18.06-30.45 20.74-33.05L20.74-33.05Q21.58-33.93 22.32-34.06ZM10.81-21.18L10.81-21.18Q11.25-21.53 12.61-21.4L12.61-21.4 34.94-21.4Q35.51-21.27 35.64-20.79L35.64-20.79Q35.95-19.91 35.07-19.47L35.07-19.47Q34.89-19.38 33.57-19.38L33.57-19.38 12.61-19.38Q11.29-19.25 10.72-19.64L10.72-19.64Q10.2-20.57 10.81-21.18ZM7.82-11.43L7.82-11.43Q8.83-12.74 10.33-12.83L10.33-12.83 36.43-12.83Q38.54-12.66 39.42-10.5L39.42-10.5Q39.55-10.06 39.59-9.58L39.59-9.58 39.59 2.42Q39.33 4.92 36.52 5.58L36.52 5.58 10.33 5.58Q7.47 4.97 7.16 2.37L7.16 2.37 7.16-9.67Q7.25-10.46 7.82-11.43ZM35.68-10.77L10.99-10.77Q9.58-10.68 9.23-9.05L9.23-9.05 9.23 1.58Q9.32 3.08 10.9 3.56L10.9 3.56 35.68 3.56Q37.49 3.25 37.57 1.54L37.57 1.54 37.57-8.96Q37.18-10.68 35.68-10.77L35.68-10.77ZM52.87-33.18L52.87-33.18 59.11-33.18Q61.83-32.83 62.14-30.06L62.14-30.06 62.14 3.16Q62.14 5.27 60.12 6.37L60.12 6.37Q58.97 6.77 57.39 6.64L57.39 6.64Q55.63 6.5 53.75 6.02L53.75 6.02 53.44 5.84Q52.82 5.32 53.31 4.26L53.31 4.26Q53.7 3.78 54.32 3.96L54.32 3.96Q56.95 4.7 58.89 4.31L58.89 4.31Q59.19 4.31 59.63 3.6L59.63 3.6Q59.99 3.08 60.12 1.85L60.12 1.85 60.12-7.25Q60.12-8.31 59.06-8.31L59.06-8.31 53.13-8.31Q52.08-8.31 51.99-7.25L51.99-7.25Q51.59-0.7 49.7 5.32L49.7 5.32Q49.66 6.15 48.47 6.64L48.47 6.64Q46.71 6.42 47.42 4.97L47.42 4.97Q48.87 1.54 49.44-2.07L49.44-2.07Q50.01-6.2 50.1-11.25L50.1-11.25 50.1-30.19Q50.27-32.56 52.87-33.18ZM68.64-32.65L68.64-32.65 83.72-32.65Q86-32.39 86.44-29.93L86.44-29.93 86.44-14.9Q85.96-12.17 83.41-12L83.41-12 69.43-12Q68.33-12 68.33-10.94L68.33-10.94 68.33 1.49Q68.42 2.99 69.52 3.47L69.52 3.47Q71.46 3.96 75.32 4.04L75.32 4.04 78.35 4.04Q81.47 3.96 83.67 3.78L83.67 3.78Q84.24 3.69 84.55 3.52L84.55 3.52Q85.69 2.81 85.87 1.32L85.87 1.32Q85.83-1.36 86.09-3.65L86.09-3.65Q86.4-4.39 87.28-4.13L87.28-4.13Q88.33-3.65 87.98-2.46L87.98-2.46 87.98 1.45Q88.2 3.12 87.19 4.48L87.19 4.48Q86.53 5.27 85.47 5.58L85.47 5.58Q83.1 6.15 78.62 6.15L78.62 6.15 75.37 6.15Q72.2 6.28 68.99 5.49L68.99 5.49Q66.62 4.83 66.27 2.29L66.27 2.29 66.27-30.28Q66.4-32.04 68.64-32.65ZM58.32-31.16L53.7-31.16Q52.25-30.89 52.16-29.58L52.16-29.58 52.16-22.85Q52.16-21.75 53.22-21.75L53.22-21.75 59.06-21.75Q60.12-21.75 60.12-22.81L60.12-22.81 60.12-29.36Q59.99-31.03 58.32-31.16L58.32-31.16ZM74-30.63L70.49-30.63Q68.16-31.03 68.33-28.61L68.33-28.61 68.33-15.12Q68.33-14.02 69.39-14.02L69.39-14.02 74-14.02Q75.06-14.02 75.06-15.07L75.06-15.07 75.06-29.58Q75.06-30.63 74-30.63L74-30.63ZM83.85-30.28L83.85-30.28Q83.1-30.81 82.05-30.63L82.05-30.63 78.18-30.63Q77.08-30.63 77.08-29.58L77.08-29.58 77.08-15.12Q77.08-14.02 78.13-14.02L78.13-14.02 82.88-14.02Q84.29-14.33 84.38-15.6L84.38-15.6 84.38-29.18Q84.38-29.66 83.85-30.28ZM60.12-11.38L60.12-18.63Q60.12-19.73 59.11-19.73L59.11-19.73 53.26-19.73Q52.16-19.73 52.16-18.68L52.16-18.68 52.16-13.05Q52.12-12.22 52.12-11.43L52.12-11.43Q52.08-10.33 53.13-10.33L53.13-10.33 59.06-10.33Q60.12-10.33 60.12-11.38L60.12-11.38ZM118.17-29.49L118.17-33.71Q118.43-34.58 119.31-34.5L119.31-34.5Q119.75-34.5 120.1-33.88L120.1-33.88Q120.19-33.62 120.19-32.3L120.19-32.3 120.19-29.53Q120.19-28.43 121.25-28.43L121.25-28.43 129.11-28.43Q131.13-28.13 131.66-25.97L131.66-25.97 131.66-6.99Q131.57-6.11 130.91-5.23L130.91-5.23Q130.17-4.44 129.07-4.26L129.07-4.26 121.29-4.26Q120.19-4.26 120.19-3.21L120.19-3.21 120.19 5.01Q120.19 6.33 120.15 6.55L120.15 6.55Q119.75 7.38 118.78 7.16L118.78 7.16Q118.34 6.94 118.26 6.55L118.26 6.55Q118.17 6.37 118.17 5.05L118.17 5.05 118.17-3.21Q118.17-4.26 117.11-4.26L117.11-4.26 109.38-4.26Q107.36-4.44 106.74-6.77L106.74-6.77 106.74-25.93Q107.27-28.21 109.29-28.43L109.29-28.43 117.11-28.43Q118.17-28.43 118.17-29.49L118.17-29.49ZM97.95-33.75L97.95-33.75Q98.35-34.19 99.01-34.15L99.01-34.15Q99.54-34.01 99.84-33.27L99.84-33.27 99.84-23.73Q99.84-22.63 100.9-22.63L100.9-22.63 103.23-22.63Q104.33-22.19 103.89-21.14L103.89-21.14Q103.75-20.92 103.54-20.74L103.54-20.74Q103.18-20.61 101.87-20.61L101.87-20.61 100.94-20.61Q99.84-20.61 99.84-19.56L99.84-19.56 99.84-4.26Q99.84-3.16 100.94-3.96L100.94-3.96Q102.08-4.79 102.57-5.32L102.57-5.32Q103.4-6.06 104.15-5.23L104.15-5.23Q104.77-4.53 103.89-3.78L103.89-3.78Q98.04 1.05 94.22 2.59L94.22 2.59Q93.78 2.72 93.34 2.72L93.34 2.72Q92.86 2.68 92.59 2.11L92.59 2.11Q92.07 1.14 93.34 0.66L93.34 0.66Q95.01-0.18 96.72-1.14L96.72-1.14Q97.78-1.8 97.78-2.86L97.78-2.86 97.78-19.56Q97.78-20.61 96.72-20.61L96.72-20.61 94.75-20.61Q93.43-20.61 93.21-20.7L93.21-20.7Q92.81-20.92 92.72-21.27L92.72-21.27Q92.42-22.1 93.3-22.59L93.3-22.59Q93.47-22.63 94.79-22.63L94.79-22.63 96.72-22.63Q97.78-22.63 97.78-23.69L97.78-23.69 97.78-31.99Q97.78-33.31 97.95-33.75ZM117.11-26.41L110.21-26.41Q108.98-26.28 108.81-25L108.81-25 108.81-18.68Q108.81-17.58 109.86-17.58L109.86-17.58 117.11-17.58Q118.17-17.58 118.17-18.63L118.17-18.63 118.17-25.36Q118.17-26.41 117.11-26.41L117.11-26.41ZM128.23-26.41L128.23-26.41 121.29-26.41Q120.19-26.41 120.19-25.36L120.19-25.36 120.19-18.68Q120.19-17.58 121.25-17.58L121.25-17.58 128.54-17.58Q129.59-17.58 129.59-18.63L129.59-18.63 129.59-24.83Q129.55-25.27 129.33-25.71L129.33-25.71Q129.07-26.32 128.23-26.41ZM118.17-7.38L118.17-14.46Q118.17-15.51 117.11-15.51L117.11-15.51 109.91-15.51Q108.81-15.51 108.81-14.46L108.81-14.46 108.81-7.73Q109.16-6.42 110.3-6.33L110.3-6.33 117.11-6.33Q118.17-6.33 118.17-7.38L118.17-7.38ZM129.59-7.87L129.59-14.46Q129.59-15.51 128.54-15.51L128.54-15.51 121.29-15.51Q120.19-15.51 120.19-14.46L120.19-14.46 120.19-7.43Q120.19-6.33 121.25-6.33L121.25-6.33 128.06-6.33Q129.38-6.55 129.59-7.87L129.59-7.87ZM157.06-34.41L157.06-34.41Q157.81-34.67 158.33-34.01L158.33-34.01Q158.55-33.62 158.55-32.3L158.55-32.3 158.55-22.5Q158.55-21.4 159.61-21.4L159.61-21.4 164.53-21.4Q165.59-21.4 166.33-22.46L166.33-22.46Q167.96-24.52 168.84-25.8L168.84-25.8 172.27-31.07Q173.28-32.48 173.5-32.52L173.5-32.52Q174.86-32.43 174.64-31.29L174.64-31.29Q172.88-27.47 168.93-22.5L168.93-22.5Q168.05-21.4 169.1-21.4L169.1-21.4 172.57-21.4Q175.52-21.05 175.78-18.15L175.78-18.15 175.78 2.64Q175.56 4.44 174.99 5.27L174.99 5.27Q173.45 6.72 171.47 6.77L171.47 6.77Q169.19 6.72 166.03 6.02L166.03 6.02Q164.22 5.71 164.93 4.22L164.93 4.22Q165.19 3.82 165.81 3.78L165.81 3.78Q169.41 4.53 170.77 4.66L170.77 4.66Q171.78 4.66 172.57 4.26L172.57 4.26Q173.06 4.17 173.5 3.43L173.5 3.43Q173.67 2.77 173.72 2.24L173.72 2.24 173.72-17.4Q173.14-19.69 170.9-19.38L170.9-19.38 144.05-19.38Q143.04-19.51 142.38-19.16L142.38-19.16Q141.06-18.11 141.28-16.57L141.28-16.57 141.28 4.7Q141.42 6.02 141.02 6.59L141.02 6.59Q139.97 7.21 139.39 6.37L139.39 6.37Q139.26 6.06 139.26 4.79L139.26 4.79 139.26-18.15Q139.48-20.35 141.55-21.18L141.55-21.18Q141.94-21.36 142.51-21.4L142.51-21.4 155.43-21.4Q156.49-21.4 156.49-22.46L156.49-22.46 156.49-33.71Q156.49-34.06 157.06-34.41ZM140.98-32.92L140.98-32.92Q141.77-33.4 142.56-32.43L142.56-32.43Q146.87-27.77 148.1-25.4L148.1-25.4Q148.62-24.61 147.57-24.04L147.57-24.04Q146.82-23.64 145.81-25.27L145.81-25.27Q143.7-28.43 140.76-31.42L140.76-31.42Q140.1-32.21 140.98-32.92ZM146.82-2.37L146.82-11.51Q147.26-13.8 149.37-14.02L149.37-14.02 165.67-14.02Q167.7-13.71 168.22-11.56L168.22-11.56 168.22-2.55Q168.09-0.53 165.63 0.13L165.63 0.13 149.5 0.13Q147.26-0.22 146.82-2.37L146.82-2.37ZM164.79-12L150.34-12Q149.19-12 148.84-10.5L148.84-10.5 148.84-3.34Q149.19-2.02 150.38-1.89L150.38-1.89 164.62-1.89Q165.98-2.11 166.16-3.43L166.16-3.43 166.16-10.46Q166.07-11.78 164.79-12L164.79-12Z" transform="translate(-2.276111125946045, 34.506736755371094)"></path></g> <!----> <!----> <!----> <!----> <!----> <!----> <!----></g></g> <g data-gra="path-slogan" fill-rule="" class="tp-slogan iconsvg-slogansvg" fill="#d89b21" transform="translate(5.000007629394531,47.712833404541016)"><rect x="0" height="1" y="3.9750003814697266" width="26.531944274902344"></rect> <rect height="1" y="3.9750003814697266" width="26.531944274902344" x="136.9719467163086"></rect> <g transform="translate(29.531944274902344,0)"><g transform="scale(1)"><path d="M2.06-5.06L6.56-5.06L6.56-8.58L7.73-8.58L7.73 0L6.56 0L6.56-3.98L2.06-3.98L2.06 0L0.89 0L0.89-8.58L2.06-8.58L2.06-5.06ZM10.83-1.03L15.98-1.03L15.98 0L9.66 0L9.66-8.58L15.89-8.58L15.89-7.59L10.83-7.59L10.83-4.92L15.52-4.92L15.52-3.89L10.83-3.89L10.83-1.03ZM23.02-3.89L18.80-3.89L18.80 0L17.63 0L17.63-8.58L23.58-8.58L23.58-7.59L18.80-7.59L18.80-4.92L23.02-4.92L23.02-3.89ZM26.06-1.03L31.22-1.03L31.22 0L24.89 0L24.89-8.58L31.13-8.58L31.13-7.59L26.06-7.59L26.06-4.92L30.75-4.92L30.75-3.89L26.06-3.89L26.06-1.03ZM32.91-8.58L34.08-8.58L34.08 0L32.91 0L32.91-8.58ZM41.91-4.31L40.55-3.05L40.55 0L39.38 0L39.38-8.58L40.55-8.58L40.55-4.41L44.72-8.58L46.36-8.58L42.75-5.11L46.45 0L44.91 0L41.91-4.31ZM53.02-3.19L53.02-8.58L54.19-8.58L54.19-3.05Q54.05 0.05 50.67 0.14L50.67 0.14Q47.53 0.05 47.39-2.86L47.39-2.86L47.39-8.58L48.56-8.58L48.56-3.19Q48.61-0.84 50.72-0.80L50.72-0.80Q53.02-0.84 53.02-3.19L53.02-3.19ZM57.38-8.58L61.69-1.64L61.69-8.58L62.81-8.58L62.81 0L61.50 0L57.14-6.94L57.09-6.94L57.09 0L55.97 0L55.97-8.58L57.38-8.58ZM70.88-6.09L70.88-6.09L69.80-6.09Q69.70-7.73 67.64-7.83L67.64-7.83Q65.72-7.78 65.72-6.33L65.72-6.33Q65.72-5.39 66.75-5.25L66.75-5.25L69.19-4.69Q71.11-4.22 71.11-2.34L71.11-2.34Q71.06 0.05 67.73 0.14L67.73 0.14Q65.91 0.14 65.16-0.61L65.16-0.61Q64.22-1.31 64.27-2.77L64.27-2.77L65.39-2.77Q65.44-0.80 67.73-0.75L67.73-0.75Q69.98-0.80 70.03-2.20L70.03-2.20Q70.22-3.38 68.16-3.75L68.16-3.75L66.38-4.13Q64.55-4.64 64.55-6.19L64.55-6.19Q64.69-8.72 67.55-8.81L67.55-8.81Q70.78-8.81 70.88-6.09ZM73.73-5.06L78.23-5.06L78.23-8.58L79.41-8.58L79.41 0L78.23 0L78.23-3.98L73.73-3.98L73.73 0L72.56 0L72.56-8.58L73.73-8.58L73.73-5.06ZM86.86 0L86.02-2.48L82.55-2.48L81.66 0L80.48 0L83.72-8.58L85.03-8.58L88.13 0L86.86 0ZM84.28-7.31L82.92-3.52L85.59-3.52L84.33-7.31L84.28-7.31ZM90.56-8.58L94.88-1.64L94.88-8.58L96-8.58L96 0L94.69 0L90.33-6.94L90.28-6.94L90.28 0L89.16 0L89.16-8.58L90.56-8.58ZM104.20-3.61L101.58-3.61L101.58-4.59L105.33-4.59L105.33 0L104.58 0L104.30-1.08Q103.31 0.09 101.48 0.14L101.48 0.14Q99.75 0.14 98.81-0.75L98.81-0.75Q97.41-2.06 97.45-4.36L97.45-4.36Q97.78-8.63 101.53-8.81L101.53-8.81Q104.72-8.63 105.19-6L105.19-6L104.06-6Q103.59-7.78 101.48-7.83L101.48-7.83Q98.81-7.64 98.67-4.31L98.67-4.31Q98.67-0.75 101.53-0.75L101.53-0.75Q102.56-0.75 103.31-1.31L103.31-1.31Q104.25-2.06 104.20-3.61L104.20-3.61Z" transform="translate(-0.890625, 8.8125)"></path></g></g></g></g></g><defs v-gra="od"></defs></svg>